<svg width="20" height="20" viewBox="0 0 20 20" xmlns="http://www.w3.org/2000/svg"><title>Spotify_Icon_RGB_Green</title><path d="M15.588 9.094C12.43 7.22 7.223 7.047 4.208 7.96c-.483.148-.994-.125-1.14-.61-.148-.483.125-.995.61-1.142 3.46-1.05 9.21-.847 12.845 1.31.436.26.58.82.32 1.256-.258.435-.82.58-1.255.32zm-.103 2.777c-.222.36-.692.473-1.05.253-2.633-1.618-6.646-2.087-9.76-1.142-.404.123-.83-.104-.953-.508-.122-.403.106-.83.51-.952 3.556-1.08 7.98-.557 11.002 1.3.36.222.472.693.25 1.05zm-1.2 2.668c-.175.29-.55.38-.838.203-2.3-1.404-5.195-1.722-8.604-.943-.33.075-.656-.13-.73-.46-.077-.328.13-.655.458-.73 3.732-.853 6.932-.486 9.514 1.092.288.174.378.55.202.838zM9.796.41C4.385.41 0 4.797 0 10.206 0 15.615 4.385 20 9.795 20s9.794-4.385 9.794-9.795S15.203.41 9.794.41z" fill="#4DB05B" fill-rule="evenodd"/></svg>